<?xml version="1.0" encoding="iso-8859-1"?>
<!-- Generator: Adobe Illustrator 19.0.1, SVG Export Plug-In . SVG Version: 6.00 Build 0)  -->
<svg version="1.1" xmlns="http://www.w3.org/2000/svg" xmlns:xlink="http://www.w3.org/1999/xlink" x="0px" y="0px"
	 viewBox="0 0 128 128" style="enable-background:new 0 0 128 128;" xml:space="preserve">
<g id="_x31_8">
	<path style="fill:#303030;" d="M128,122.674H28.697L0,104.398V5.235h99.305L128,23.511V122.674z M36.736,114.646h73.413
		l-17.851-10.043l0.132-0.206H36.736V114.646z M13.698,104.398l14.999,8.234v-8.234H13.698z M99.305,99.537l20.656,13.094V31.539
		H99.305V99.537z M36.736,96.37h54.53V31.539h-54.53V96.37z M8.039,96.37h20.658V29.647L8.039,16.551V96.37z M99.305,23.511h14.919
		l-14.919-8.949V23.511z M33.56,23.511h57.706V13.262H17.851l15.841,10.043L33.56,23.511z"/>
</g>
<g id="Layer_1">
</g>
</svg>
