<?xml version="1.0" encoding="utf-8"?>
<!-- Generator: Adobe Illustrator 16.0.0, SVG Export Plug-In . SVG Version: 6.00 Build 0)  -->
<!DOCTYPE svg PUBLIC "-//W3C//DTD SVG 1.0//EN" "http://www.w3.org/TR/2001/REC-SVG-20010904/DTD/svg10.dtd">
<svg version="1.0" id="Layer_1" xmlns="http://www.w3.org/2000/svg" xmlns:xlink="http://www.w3.org/1999/xlink" x="0px" y="0px"
	 width="100px" height="100px" viewBox="0 0 100 100" enable-background="new 0 0 100 100" xml:space="preserve">
<circle cx="20.833" cy="20.833" r="10.833"/>
<path d="M60.833,20.833c0,5.983-4.854,10.833-10.833,10.833c-5.983,0-10.833-4.85-10.833-10.833C39.167,14.85,44.017,10,50,10
	C55.979,10,60.833,14.85,60.833,20.833z"/>
<path d="M90,20.833c0,5.983-4.854,10.833-10.833,10.833c-5.98,0-10.834-4.85-10.834-10.833C68.333,14.85,73.187,10,79.167,10
	C85.146,10,90,14.85,90,20.833z"/>
<circle cx="20.833" cy="50" r="10.833"/>
<path d="M60.833,50c0,5.983-4.854,10.833-10.833,10.833c-5.983,0-10.833-4.85-10.833-10.833c0-5.983,4.85-10.833,10.833-10.833
	C55.979,39.167,60.833,44.017,60.833,50z"/>
<path d="M90,50c0,5.983-4.854,10.833-10.833,10.833c-5.98,0-10.834-4.85-10.834-10.833c0-5.983,4.854-10.833,10.834-10.833
	C85.146,39.167,90,44.017,90,50z"/>
<path d="M60.833,79.167C60.833,85.149,55.979,90,50,90c-5.983,0-10.833-4.851-10.833-10.833c0-5.983,4.85-10.834,10.833-10.834
	C55.979,68.333,60.833,73.184,60.833,79.167z"/>
</svg>
